<svg xmlns="http://www.w3.org/2000/svg" version="1.1" xmlns:xlink="http://www.w3.org/1999/xlink" xmlns:svgjs="http://svgjs.dev/svgjs" width="1440" height="560" preserveAspectRatio="none" viewBox="0 0 1440 560"><g mask="url(&quot;#SvgjsMask1007&quot;)" fill="none"><rect width="1440" height="560" x="0" y="0" fill="rgba(255, 255, 255, 1)"></rect><path d="M320.73 335.21 a33.55 33.55 0 1 0 67.1 0 a33.55 33.55 0 1 0 -67.1 0z" fill="rgba(97, 218, 251, 1)"></path><path d="M1299.08 465.61a2.58 2.58 0 1 0-5.12-0.66z" stroke="rgba(128, 128, 255, 1)"></path><path d="M258.2 101.95L296.85 101.95L296.85 111.56L258.2 111.56z" stroke="rgba(97, 218, 251, 1)"></path><path d="M832.48 265.46L856.17 265.46L856.17 279.49L832.48 279.49z" fill="rgba(97, 218, 251, 1)"></path><path d="M260.63 174.75L264.15 174.75L264.15 178.27L260.63 178.27z" fill="rgba(128, 128, 255, 1)"></path><path d="M1404.98 341.43L1438.48 341.43L1438.48 358.68L1404.98 358.68z" stroke="rgba(128, 128, 255, 1)"></path><path d="M224.92 71.03 a45.86 45.86 0 1 0 91.72 0 a45.86 45.86 0 1 0 -91.72 0z" fill="rgba(128, 128, 255, 1)"></path><path d="M1154.97 274.08L1184.89 274.08L1184.89 304L1154.97 304z" stroke="rgba(128, 128, 255, 1)"></path><path d="M1131.95 285.43a4.77 4.77 0 1 0 5.03-8.1z" fill="rgba(128, 128, 255, 1)"></path><path d="M1212.65 107.78L1248.79 107.78L1248.79 150.67L1212.65 150.67z" stroke="rgba(128, 128, 255, 1)"></path><path d="M918.69 240.49 a53.77 53.77 0 1 0 107.54 0 a53.77 53.77 0 1 0 -107.54 0z" fill="rgba(128, 128, 255, 1)"></path><path d="M1209.4 11.17L1259.68 11.17L1259.68 66.64L1209.4 66.64z" stroke="rgba(97, 218, 251, 1)"></path><path d="M1189.33 546.67a2.31 2.31 0 1 0-1.1 4.49z" fill="rgba(128, 128, 255, 1)"></path><path d="M1140.53 508.36L1156.81 508.36L1156.81 549.8L1140.53 549.8z" stroke="rgba(97, 218, 251, 1)"></path><path d="M960.26 3.94 a34.87 34.87 0 1 0 69.74 0 a34.87 34.87 0 1 0 -69.74 0z" fill="rgba(97, 218, 251, 1)"></path><path d="M1283.54 85.6L1338.2 85.6L1338.2 127.9L1283.54 127.9z" fill="rgba(128, 128, 255, 1)"></path><path d="M238.55 220.29a41.48 41.48 0 1 0 33.77-75.78z" fill="rgba(128, 128, 255, 1)"></path><path d="M100.4 109.68L128.23 109.68L128.23 131.37L100.4 131.37z" stroke="rgba(128, 128, 255, 1)"></path><path d="M1260.06 42.46L1260.5 42.46L1260.5 69.02L1260.06 69.02z" stroke="rgba(97, 218, 251, 1)"></path><path d="M333.35 168.5L367.28 168.5L367.28 177.87L333.35 177.87z" fill="rgba(128, 128, 255, 1)"></path><path d="M697.29 12.33 a54.28 54.28 0 1 0 108.56 0 a54.28 54.28 0 1 0 -108.56 0z" stroke="rgba(97, 218, 251, 1)"></path><path d="M552.55 250.26L593.65 250.26L593.65 291.36L552.55 291.36z" stroke="rgba(97, 218, 251, 1)"></path><path d="M150.11 539.42a26.25 26.25 0 1 0-15.96-50.01z" fill="rgba(97, 218, 251, 1)"></path><path d="M1107.46 122.57L1110.71 122.57L1110.71 127.03L1107.46 127.03z" stroke="rgba(97, 218, 251, 1)"></path><path d="M185.89 532.96 a12.71 12.71 0 1 0 25.42 0 a12.71 12.71 0 1 0 -25.42 0z" stroke="rgba(128, 128, 255, 1)"></path><path d="M769.86 525.87a37.67 37.67 0 1 0 74.16-13.28z" fill="rgba(97, 218, 251, 1)"></path><path d="M932.31 201.43 a11.62 11.62 0 1 0 23.24 0 a11.62 11.62 0 1 0 -23.24 0z" stroke="rgba(97, 218, 251, 1)"></path><path d="M883.95 211.64L886.51 211.64L886.51 221.75L883.95 221.75z" fill="rgba(97, 218, 251, 1)"></path><path d="M1150.55 419.62L1151.33 419.62L1151.33 473.96L1150.55 473.96z" stroke="rgba(128, 128, 255, 1)"></path><path d="M957.28 51.65 a20.43 20.43 0 1 0 40.86 0 a20.43 20.43 0 1 0 -40.86 0z" stroke="rgba(128, 128, 255, 1)"></path><path d="M485.17 543.52L498.55 543.52L498.55 556.9L485.17 556.9z" stroke="rgba(128, 128, 255, 1)"></path><path d="M1168.75 502.26 a25.63 25.63 0 1 0 51.26 0 a25.63 25.63 0 1 0 -51.26 0z" stroke="rgba(128, 128, 255, 1)"></path><path d="M269.78 377.19L271.73 377.19L271.73 382.83L269.78 382.83z" stroke="rgba(128, 128, 255, 1)"></path></g><defs><mask id="SvgjsMask1007"><rect width="1440" height="560" fill="#ffffff"></rect></mask></defs></svg>